<svg xmlns="http://www.w3.org/2000/svg" viewBox="0 0 93.29 62">
  <defs>
    <style>
      .cls-1 {
        fill: #458fcd;
      }
    </style>
  </defs>
  <title>Asset 4</title>
  <g id="Layer_2" data-name="Layer 2">
    <g id="Layer_1-2" data-name="Layer 1">
      <g id="Layer_1-2-2" data-name="Layer 1-2">
        <path class="cls-1" d="M61.29,62h-54A7.32,7.32,0,0,1,0,54.69V7.31A7.32,7.32,0,0,1,7.31,0h54A7.32,7.32,0,0,1,68.6,7.31V54.69A7.32,7.32,0,0,1,61.29,62ZM7.31,2A5.31,5.31,0,0,0,2,7.31V54.69A5.31,5.31,0,0,0,7.31,60h54a5.31,5.31,0,0,0,5.31-5.31V7.31A5.31,5.31,0,0,0,61.29,2Z"/>
        <path class="cls-1" d="M89.88,51.25a3.45,3.45,0,0,1-1.48-.34L75.32,46a3.43,3.43,0,0,1-2.07-3.16v-22a3.43,3.43,0,0,1,1.63-2.93l13.18-6.64a3.41,3.41,0,0,1,5.23,3V47.78A3.4,3.4,0,0,1,90,51.25Zm0-38.5a1.4,1.4,0,0,0-.78.24L89,13,75.85,19.67a1.38,1.38,0,0,0-.6,1.17v22a1.41,1.41,0,0,0,.83,1.31l13.17,5a1.4,1.4,0,0,0,1.65-.29,1.4,1.4,0,0,0,.39-1V14.22a1.39,1.39,0,0,0-.23-.83A1.42,1.42,0,0,0,89.88,12.75Z"/>
        <path class="cls-1" d="M27.62,43h-.05a2.56,2.56,0,0,1-2.52-2.61V21.64a2.56,2.56,0,0,1,.4-1.41A2.58,2.58,0,0,1,29,19.45L45.17,28.8a2.53,2.53,0,0,1,0,4.4L29,42.57A2.53,2.53,0,0,1,27.62,43Zm0-21.9h-.12a.55.55,0,0,0-.35.25.56.56,0,0,0-.09.31V40.36a.56.56,0,0,0,.55.59.53.53,0,0,0,.32-.09l16.25-9.39a.54.54,0,0,0,.2-.74.64.64,0,0,0-.2-.2h0L28,21.16A.62.62,0,0,0,27.61,21.05Z"/>
      </g>
    </g>
  </g>
</svg>
