<svg xmlns="http://www.w3.org/2000/svg" viewBox="0 0 60 35.75">
  <defs>
    <style>
      .cls-1 {
        opacity: 0;
      }

      .cls-2 {
        fill: #5daacf;
      }

      .cls-3 {
        fill: #73c8b6;
      }

      .cls-4 {
        fill: #4b7bb8;
      }
    </style>
  </defs>
  <title>Asset 1</title>
  <g id="Layer_2" data-name="Layer 2">
    <g id="Layer_1-2" data-name="Layer 1">
      <g>
        <g>
          <g class="cls-1">
            <path d="M4.78,18.72v-.79"/>
          </g>
          <path class="cls-2" d="M4.78,21.91a3.14,3.14,0,0,1-3.19-3.19v-.79a3.14,3.14,0,0,1,3.19-3.19A3.15,3.15,0,0,1,8,17.93v.79C7.57,20.72,6.37,21.91,4.78,21.91Z"/>
        </g>
        <g>
          <g class="cls-1">
            <path d="M4.78,24.7v-2"/>
          </g>
          <path class="cls-3" d="M4.78,27.89A3.15,3.15,0,0,1,1.59,24.7v-2a3.14,3.14,0,0,1,3.19-3.19A3.15,3.15,0,0,1,8,22.71v2C7.57,26.29,6.37,27.89,4.78,27.89Z"/>
        </g>
        <g>
          <g class="cls-1">
            <path d="M4.78,27.89v-1.2"/>
          </g>
          <path class="cls-3" d="M4.78,31.07a3.14,3.14,0,0,1-3.19-3.18v-1.2A3.15,3.15,0,0,1,4.78,23.5,3.15,3.15,0,0,1,8,26.69v1.2C7.57,29.88,6.37,31.07,4.78,31.07Z"/>
        </g>
        <g>
          <g class="cls-1">
            <path d="M4.78,16.33V6"/>
          </g>
          <path class="cls-2" d="M4.78,19.52a3.14,3.14,0,0,1-3.19-3.19V6A3.14,3.14,0,0,1,4.78,2.79,3.14,3.14,0,0,1,8,6V16.33C7.57,17.93,6.37,19.52,4.78,19.52Z"/>
        </g>
        <g>
          <g class="cls-1">
            <path d="M4.78,19.92V18.33"/>
          </g>
          <path class="cls-2" d="M4.78,23.11a3.15,3.15,0,0,1-3.19-3.19V18.33a3.14,3.14,0,0,1,3.19-3.19A3.14,3.14,0,0,1,8,18.33v1.59C7.57,21.91,6.37,23.11,4.78,23.11Z"/>
        </g>
        <g>
          <g class="cls-1">
            <path d="M23.5,15.94V5.18"/>
          </g>
          <path class="cls-3" d="M23.5,20.72a4.61,4.61,0,0,1-4.78-4.78V4.78a5,5,0,1,1,10,.4V15.94A5.22,5.22,0,0,1,23.5,20.72Z"/>
        </g>
        <g>
          <g class="cls-1">
            <path d="M14.34,18.33c4.38,5.57,8.37,11.15,9.16,12.34"/>
          </g>
          <path class="cls-2" d="M23.5,35.46a5.53,5.53,0,0,1-4-2L10.36,21.11a5,5,0,0,1,.79-6.77,5,5,0,0,1,6.78.8l9.16,12.35a5,5,0,0,1-.8,6.77A3.6,3.6,0,0,1,23.5,35.46Z"/>
        </g>
        <g>
          <g class="cls-1">
            <path d="M4.78,5.18l9.56,12.75"/>
          </g>
          <path class="cls-3" d="M14.34,23.11a5.51,5.51,0,0,1-4-2L.8,8.37,8.37,2.79l9.56,12.75a5,5,0,0,1-.8,6.77A5.74,5.74,0,0,1,14.34,23.11Z"/>
        </g>
        <g>
          <g class="cls-1">
            <path d="M23.5,30.68h0V15.94"/>
          </g>
          <path class="cls-4" d="M23.5,35.46a5.53,5.53,0,0,1-4-2h0a4.91,4.91,0,0,1-.8-4V15.94a4.61,4.61,0,0,1,4.78-4.79,4.61,4.61,0,0,1,4.78,4.79V31.07a4.32,4.32,0,0,1-3.18,4.39Z"/>
        </g>
        <g>
          <g class="cls-1">
            <path d="M4.78,21.11V5.18h0"/>
          </g>
          <path class="cls-4" d="M4.78,25.89A4.6,4.6,0,0,1,0,21.11V5.18A4.6,4.6,0,0,1,4.78.4,4.6,4.6,0,0,1,9.56,5.18V21.11A5.14,5.14,0,0,1,4.78,25.89Z"/>
        </g>
        <g>
          <g class="cls-1">
            <path d="M4.78,30.68h0v-10"/>
          </g>
          <path class="cls-2" d="M4.78,35.46h0A4.84,4.84,0,0,1,0,30.68V21.11a4.61,4.61,0,0,1,4.78-4.78,4.61,4.61,0,0,1,4.78,4.78v10C9.56,33.46,7.17,35.46,4.78,35.46Z"/>
        </g>
        <g>
          <g class="cls-1">
            <path d="M53.17,25a10.91,10.91,0,0,1-10,5.58h-6"/>
          </g>
          <path class="cls-2" d="M37.23,35.75A4.61,4.61,0,0,1,32.45,31a4.6,4.6,0,0,1,4.78-4.78h6A6.37,6.37,0,0,0,48.79,23a4.72,4.72,0,0,1,8.36,4.38,15.29,15.29,0,0,1-13.94,8Z"/>
        </g>
        <g>
          <g class="cls-1">
            <path d="M54.76,15c0,.8.4,2,.4,2.79A19.14,19.14,0,0,1,53.57,25"/>
          </g>
          <path class="cls-3" d="M53.17,30.17a5.6,5.6,0,0,1-2.39-.8,4.73,4.73,0,0,1-2-6.37A8.56,8.56,0,0,0,50,18.22v-2a4.85,4.85,0,0,1,9.56-1.6c0,1.2.4,2.39.4,3.59a19,19,0,0,1-2.39,9.56C56.35,29,54.76,30.17,53.17,30.17Z"/>
        </g>
        <g>
          <g class="cls-1">
            <path d="M36,26.58V5.47h.4"/>
          </g>
          <path class="cls-3" d="M36,31.36a4.6,4.6,0,0,1-4.78-4.78V5.47A4.6,4.6,0,0,1,36,.69h.4a4.61,4.61,0,0,1,4.78,4.78c0,.8,0,1.19-.4,1.59V26.58C41.22,29,38.83,31.36,36,31.36Z"/>
        </g>
        <g>
          <g class="cls-1">
            <path d="M36.44,5.07h6.77a11.71,11.71,0,0,1,4,.8"/>
          </g>
          <path class="cls-2" d="M47.59,10.65a2.38,2.38,0,0,1-1.59-.4,5.05,5.05,0,0,0-2.39-.4H36.83a4.61,4.61,0,0,1-4.78-4.78A4.61,4.61,0,0,1,36.83.29h6.78a12.64,12.64,0,0,1,5.57,1.2c2.39.79,3.59,3.58,2.79,6.37A4.9,4.9,0,0,1,47.59,10.65Z"/>
        </g>
        <g>
          <g class="cls-1">
            <path d="M47.59,5.87C51.18,7.06,54,10.65,54.76,15"/>
          </g>
          <path class="cls-4" d="M54.76,19.81a4.73,4.73,0,0,1-4.78-4,6.82,6.82,0,0,0-4-5.58c-2.39-.8-3.59-3.59-2.79-6.37C44,1.49,46.79.29,49.58,1.09c5.58,2,9.16,6.77,10.36,12.75a4.68,4.68,0,0,1-4,5.57A3.1,3.1,0,0,1,54.76,19.81Z"/>
        </g>
        <g>
          <g class="cls-1">
            <path d="M36,30.57V26.19"/>
          </g>
          <path class="cls-2" d="M36,35.75A4.61,4.61,0,0,1,31.26,31V26.58a4.78,4.78,0,0,1,9.56,0V31C41.22,33.36,38.83,35.75,36,35.75Z"/>
        </g>
      </g>
    </g>
  </g>
</svg>
