<svg xmlns="http://www.w3.org/2000/svg" viewBox="0 0 36.77 62">
  <defs>
    <style>
      .cls-1 {
        fill: #78c8cf;
      }
    </style>
  </defs>
  <title>call</title>
  <g id="Layer_2" data-name="Layer 2">
    <g id="Layer_1-2" data-name="Layer 1">
      <g>
        <path class="cls-1" d="M33,62H3.8A3.8,3.8,0,0,1,0,58.2V3.8A3.8,3.8,0,0,1,3.8,0H33a3.8,3.8,0,0,1,3.79,3.8V58.2A3.8,3.8,0,0,1,33,62ZM3.8,2A1.81,1.81,0,0,0,2,3.8V58.2A1.81,1.81,0,0,0,3.8,60H33a1.8,1.8,0,0,0,1.79-1.8V3.8A1.8,1.8,0,0,0,33,2Z"/>
        <ellipse class="cls-1" cx="18.39" cy="55.75" rx="1.45" ry="1.59"/>
        <g>
          <line class="cls-1" x1="1" y1="9.98" x2="35.77" y2="9.98"/>
          <rect class="cls-1" x="1" y="8.98" width="34.77" height="2"/>
        </g>
        <g>
          <line class="cls-1" x1="1" y1="50.54" x2="35.77" y2="50.54"/>
          <rect class="cls-1" x="1" y="49.54" width="34.77" height="2"/>
        </g>
      </g>
    </g>
  </g>
</svg>
