<svg xmlns="http://www.w3.org/2000/svg" viewBox="0 0 49.76 62">
  <defs>
    <style>
      .cls-1 {
        fill: #458fcd;
      }
    </style>
  </defs>
  <title>Asset 3</title>
  <g id="Layer_2" data-name="Layer 2">
    <g id="Layer_1-2" data-name="Layer 1">
      <path class="cls-1" d="M34,17.13a1.77,1.77,0,0,1-1.23-.51,1.81,1.81,0,0,1-.55-1.26V1a1,1,0,0,1,2,0V15.13H48.32a1,1,0,1,1,0,2H34Zm0-2Z"/>
      <path class="cls-1" d="M47.28,62H2.48A2.48,2.48,0,0,1,0,59.52V2.42A2.49,2.49,0,0,1,2.56,0H33a2.55,2.55,0,0,1,1.8.75L49,15a2.48,2.48,0,0,1,.73,1.8V59.52A2.48,2.48,0,0,1,47.28,62ZM2.51,2A.49.49,0,0,0,2,2.47L1,2.53H2v57a.48.48,0,0,0,.48.48h44.8a.47.47,0,0,0,.48-.48V16.76a.51.51,0,0,0-.14-.36L33.42,2.15A.47.47,0,0,0,33.06,2H2.51Z"/>
    </g>
  </g>
</svg>
