<svg xmlns="http://www.w3.org/2000/svg" viewBox="0 0 42.18 62">
  <defs>
    <style>
      .cls-1 {
        fill: #78c8cf;
      }
    </style>
  </defs>
  <title>location</title>
  <g id="Layer_2" data-name="Layer 2">
    <g id="Layer_1-2" data-name="Layer 1">
      <g>
        <path class="cls-1" d="M21.09,62a1,1,0,0,1-.86-.5L2.93,31.91a21.11,21.11,0,0,1-.17-21.16A20.79,20.79,0,0,1,20.61,0h1A20.79,20.79,0,0,1,39.42,10.75a21.11,21.11,0,0,1-.17,21.16l-.87-.5.87.5L22,61.5A1,1,0,0,1,21.09,62Zm0-60h-.44A18.82,18.82,0,0,0,4.5,11.73,19.12,19.12,0,0,0,4.66,30.9L21.09,59,37.52,30.9a19.12,19.12,0,0,0,.16-19.17A18.83,18.83,0,0,0,21.53,2Z"/>
        <path class="cls-1" d="M21.09,28A8.91,8.91,0,1,1,30,19.08,8.92,8.92,0,0,1,21.09,28Zm0-15.81a6.91,6.91,0,1,0,6.9,6.9A6.91,6.91,0,0,0,21.09,12.18Z"/>
      </g>
    </g>
  </g>
</svg>
