<svg xmlns="http://www.w3.org/2000/svg" viewBox="0 0 81.7 62">
  <defs>
    <style>
      .cls-1 {
        fill: #458fcd;
      }
    </style>
  </defs>
  <title>Asset 1</title>
  <g id="Layer_2" data-name="Layer 2">
    <g id="Layer_1-2" data-name="Layer 1">
      <g id="Layer_1-2-2" data-name="Layer 1-2">
        <path class="cls-1" d="M77.54,62H4.17A4.17,4.17,0,0,1,0,57.83V4.17A4.17,4.17,0,0,1,4.17,0H77.54A4.17,4.17,0,0,1,81.7,4.17V57.83A4.17,4.17,0,0,1,77.54,62ZM4.17,2A2.17,2.17,0,0,0,2,4.17V57.83A2.17,2.17,0,0,0,4.17,60H77.54a2.17,2.17,0,0,0,2.16-2.17V4.17A2.17,2.17,0,0,0,77.54,2Z"/>
        <path class="cls-1" d="M8.17,10.91a3.49,3.49,0,1,1,3.48-3.48A3.49,3.49,0,0,1,8.17,10.91Zm0-5a1.49,1.49,0,1,0,0,3,1.49,1.49,0,0,0,0-3Z"/>
        <path class="cls-1" d="M15.75,10.91a3.49,3.49,0,1,1,3.49-3.48A3.48,3.48,0,0,1,15.75,10.91Zm0-5a1.49,1.49,0,1,0,1.49,1.49A1.49,1.49,0,0,0,15.75,5.94Z"/>
        <path class="cls-1" d="M23.34,10.91a3.49,3.49,0,1,1,3.48-3.48A3.49,3.49,0,0,1,23.34,10.91Zm0-5a1.49,1.49,0,1,0,0,3,1.49,1.49,0,0,0,0-3Z"/>
        <rect class="cls-1" x="1" y="12.88" width="79.7" height="2"/>
      </g>
    </g>
  </g>
</svg>
