<svg xmlns="http://www.w3.org/2000/svg" viewBox="0 0 62 58.59">
  <defs>
    <style>
      .cls-1 {
        fill: #78c8cf;
      }
    </style>
  </defs>
  <title>write</title>
  <g id="Layer_2" data-name="Layer 2">
    <g id="Layer_1-2" data-name="Layer 1">
      <g>
        <path class="cls-1" d="M44.19,11.25H16.51a1,1,0,1,1,0-2H44.19a1,1,0,0,1,0,2Z"/>
        <g>
          <path class="cls-1" d="M58.53,58.59H3.47A3.48,3.48,0,0,1,0,55.12V21.33a1,1,0,0,1,.48-.85,1,1,0,0,1,1,0L31,35.39,60.55,20.44a1,1,0,0,1,1,0,1,1,0,0,1,.48.85V55.12A3.48,3.48,0,0,1,58.53,58.59ZM2,23V55.12a1.47,1.47,0,0,0,1.47,1.47H58.53A1.47,1.47,0,0,0,60,55.12V23L31.45,37.41a1,1,0,0,1-.9,0Z"/>
          <path class="cls-1" d="M54.94,25.4a1,1,0,0,1-1-1V2h-46V24.27a1,1,0,0,1-2,0V1a1,1,0,0,1,1-1h48a1,1,0,0,1,1,1V24.4A1,1,0,0,1,54.94,25.4Z"/>
          <path class="cls-1" d="M44.19,22.45H16.51a1,1,0,0,1,0-2H44.19a1,1,0,0,1,0,2Z"/>
          <path class="cls-1" d="M38.75,33.49H23.09a1,1,0,0,1,0-2H38.75a1,1,0,0,1,0,2Z"/>
          <path class="cls-1" d="M61,22.33a1,1,0,0,1-.53-.15l-5.56-3.47A1,1,0,1,1,56,17l5.56,3.46a1,1,0,0,1,.32,1.38A1,1,0,0,1,61,22.33Z"/>
          <path class="cls-1" d="M1,22.33a1,1,0,0,1-.86-.48,1,1,0,0,1,.34-1.38l5.85-3.54a1,1,0,0,1,1.38.34,1,1,0,0,1-.34,1.37L1.52,22.18A1,1,0,0,1,1,22.33Z"/>
        </g>
      </g>
    </g>
  </g>
</svg>
